<svg width="234" height="159" viewBox="0 0 234 159" fill="none" xmlns="http://www.w3.org/2000/svg">
<path d="M11 31.3C16.2 31.3 21.8667 32.3667 28 34.5C34.2 36.6333 39.9333 39.4333 45.2 42.9C50.5333 46.3667 54.9667 50.5333 58.5 55.4C62.1 60.2667 63.9 65.2 63.9 70.2C63.9 73.9333 60.8667 78.6 54.8 84.2C48.8 89.7333 41.8333 94.5333 33.9 98.6C25.9667 102.667 19.4667 104.7 14.4 104.7C13.2667 104.7 11.4333 103.233 8.9 100.3C6.43333 97.3 5.2 95.1 5.2 93.7C5.2 90.9667 7 83.3667 10.6 70.9C14.2667 58.3667 16.5333 49.7667 17.4 45.1C15 43.5 13 41.6 11.4 39.4C9.8 37.1333 9 35.2333 9 33.7C9 32.1 9.66667 31.3 11 31.3ZM49.5 67.4C49.5 65.2667 47.5333 62.4667 43.6 59C39.6667 55.4667 35.1 52.5333 29.9 50.2C29.5 55.2 26.6667 65.9 21.4 82.3C21.1333 83.1667 20.7 84.6 20.1 86.6C19.5667 88.5333 19.1667 89.8333 18.9 90.5C25.4333 88.3 32.1667 84.6 39.1 79.4C46.0333 74.1333 49.5 70.1333 49.5 67.4ZM78.9016 40.7C78.9016 38.9667 79.6682 37.2 81.2016 35.4C82.8016 33.5333 84.3349 32.6 85.8016 32.6C87.3349 32.6 89.1349 34.4 91.2016 38C93.2682 41.6 94.3016 44.2333 94.3016 45.9C94.3016 47.5 93.7682 48.7333 92.7016 49.6C91.6349 50.4667 90.5349 50.9 89.4016 50.9C87.4682 50.9 85.2349 49.6333 82.7016 47.1C80.1682 44.5667 78.9016 42.4333 78.9016 40.7ZM80.4016 53.2C82.7349 53.2 84.8016 54.5333 86.6016 57.2C88.4682 59.8667 89.4016 62.4333 89.4016 64.9C89.4016 66.1667 88.2349 70.7333 85.9016 78.6C83.6349 86.4 81.3682 93.8 79.1016 100.8C78.3016 103.4 76.6682 104.7 74.2016 104.7C72.7349 104.7 71.4349 104.167 70.3016 103.1C69.2349 101.967 68.7016 100.533 68.7016 98.8C68.7016 97 69.5349 92.6 71.2016 85.6C72.9349 78.5333 74.2349 72.5333 75.1016 67.6C76.0349 62.6 76.8682 58.9667 77.6016 56.7C78.4016 54.3667 79.3349 53.2 80.4016 53.2ZM133.778 45.2C133.511 43.6667 133.078 42.2667 132.478 41C131.878 39.7333 131.145 39.1 130.278 39.1C129.478 39.1 128.645 39.7 127.778 40.9C126.978 42.1 126.178 44.0667 125.378 46.8C124.111 51.0667 122.845 56.0333 121.578 61.7C126.645 61.4333 130.445 61.3 132.978 61.3C135.578 61.3 137.511 61.7 138.778 62.5C140.045 63.2333 140.678 64.1333 140.678 65.2C140.678 67.2667 138.811 68.8667 135.078 70C131.345 71.1333 125.945 72.2333 118.878 73.3C115.545 87.2333 113.211 95.9667 111.878 99.5C110.545 102.967 109.078 104.7 107.478 104.7C106.211 104.7 104.711 103.667 102.978 101.6C101.311 99.4667 100.478 97.8667 100.478 96.8C100.478 95.7333 100.711 94.4667 101.178 93C103.245 87.2 104.811 81.6 105.878 76.2C103.878 76.7333 102.078 77 100.478 77C98.9448 77 97.4115 76.3 95.8781 74.9C94.3448 73.4333 93.5781 71.6667 93.5781 69.6C93.5781 67.2 98.3781 65.1333 107.978 63.4C109.911 50.6 112.611 41.3333 116.078 35.6C119.545 29.8 124.545 26.9 131.078 26.9C134.211 26.9 137.078 28.4333 139.678 31.5C142.278 34.5667 143.578 38.2 143.578 42.4C143.578 45.1333 143.145 47.3 142.278 48.9C141.411 50.4333 140.278 51.2 138.878 51.2C137.478 51.2 136.345 50.5667 135.478 49.3C134.678 48.0333 134.111 46.6667 133.778 45.2ZM164.435 65.1C163.902 66.9 163.102 69.4333 162.035 72.7C161.035 75.9 159.768 79.9333 158.235 84.8C156.768 89.6667 156.035 92.2667 156.035 92.6C156.035 92.8667 156.568 93 157.635 93C158.768 93 161.402 92.2667 165.535 90.8C169.668 89.2667 172.102 88.5 172.835 88.5C174.502 88.5 175.335 89.6333 175.335 91.9C175.335 94.1667 173.102 96.9 168.635 100.1C164.168 103.233 159.502 104.8 154.635 104.8C152.502 104.8 149.968 103.633 147.035 101.3C144.102 98.9667 142.635 96.6 142.635 94.2C142.635 92.2 143.635 88 145.635 81.6C147.702 75.1333 149.102 70.7 149.835 68.3C147.235 69.0333 145.268 69.4 143.935 69.4C142.602 69.4 141.202 68.5 139.735 66.7C138.268 64.8333 137.535 63.0667 137.535 61.4C137.535 59.2667 142.702 57.4667 153.035 56C154.302 49.8 154.935 44.4333 154.935 39.9C154.935 37.9 155.935 36.9 157.935 36.9C159.668 36.9 161.868 37.9667 164.535 40.1C167.268 42.1667 168.635 44.2333 168.635 46.3C168.635 48.3 168.202 51.1333 167.335 54.8C170.535 54.6667 172.968 54.6 174.635 54.6C179.635 54.6 182.135 55.7333 182.135 58C182.135 59.4667 180.668 60.7333 177.735 61.8C174.868 62.8 170.435 63.9 164.435 65.1ZM220.952 55.7C221.352 54.0333 222.452 53.2 224.252 53.2C226.052 53.2 227.886 54.3333 229.752 56.6C231.686 58.8667 232.652 61.4333 232.652 64.3C232.652 65.9667 232.052 68.6 230.852 72.2C229.652 75.8 228.786 78.3667 228.252 79.9C227.786 81.4333 227.086 83.5333 226.152 86.2C225.219 88.8 224.352 91.2333 223.552 93.5C222.819 95.7 221.786 98.6667 220.452 102.4C219.186 106.133 218.019 109.6 216.952 112.8C214.886 118.8 212.352 123.433 209.352 126.7C206.419 129.967 202.586 131.6 197.852 131.6C193.119 131.6 188.886 130.333 185.152 127.8C181.419 125.333 179.552 122.833 179.552 120.3C179.552 118.767 180.219 117.067 181.552 115.2C182.952 113.333 184.119 112.4 185.052 112.4C186.052 112.4 187.319 113.167 188.852 114.7C190.452 116.3 192.086 117.867 193.752 119.4C195.419 121 196.886 121.8 198.152 121.8C199.019 121.8 199.719 121.4 200.252 120.6C200.852 119.8 201.319 119.067 201.652 118.4C202.052 117.8 202.452 116.933 202.852 115.8C203.252 114.733 203.619 113.733 203.952 112.8C204.286 111.867 204.686 110.633 205.152 109.1C205.619 107.567 206.019 106.2 206.352 105C207.486 101.4 208.452 98.2 209.252 95.4C207.052 98.2667 204.786 100.567 202.452 102.3C200.119 103.967 197.952 104.8 195.952 104.8C194.019 104.8 191.586 103.333 188.652 100.4C185.786 97.4 184.352 94.1333 184.352 90.6C184.352 87 185.119 82.2 186.652 76.2C188.252 70.2 190.219 64.8667 192.552 60.2C194.886 55.5333 196.952 53.2 198.752 53.2C200.819 53.2 202.752 54.1 204.552 55.9C206.419 57.6333 207.352 59.3333 207.352 61C207.352 62.6 206.519 65.2 204.852 68.8C203.252 72.4 201.619 76.3333 199.952 80.6C198.286 84.8667 197.452 88.5 197.452 91.5C197.452 91.9 197.619 92.1 197.952 92.1C198.819 92.1 200.652 90.5 203.452 87.3C206.252 84.0333 209.386 79.4333 212.852 73.5C216.386 67.5 219.086 61.5667 220.952 55.7Z" fill="#F95738"/>
<path d="M12.81 112.486C13.2087 112.486 13.615 112.739 14.029 113.245C14.4583 113.751 14.673 114.173 14.673 114.51C14.673 114.832 14.6117 114.993 14.489 114.993C14.3817 114.993 14.167 114.939 13.845 114.832C13.523 114.709 13.2317 114.648 12.971 114.648C12.373 114.648 11.6447 114.955 10.786 115.568C9.94267 116.181 9.13767 116.94 8.371 117.845C7.61967 118.75 6.97567 119.785 6.439 120.95C5.90233 122.1 5.634 123.097 5.634 123.94C5.634 124.783 5.84867 125.404 6.278 125.803C6.72267 126.186 7.29767 126.378 8.003 126.378C8.70833 126.378 9.43667 126.278 10.188 126.079C10.9393 125.864 11.5527 125.627 12.028 125.366C13.2547 124.707 13.9293 124.377 14.052 124.377C14.3127 124.377 14.443 124.553 14.443 124.906C14.443 125.243 14.0903 125.703 13.385 126.286C12.6797 126.853 11.8057 127.367 10.763 127.827C9.72033 128.287 8.785 128.517 7.957 128.517C6.88367 128.517 5.87167 128.057 4.921 127.137C3.97033 126.202 3.495 125.174 3.495 124.055C3.495 122.614 3.96267 120.988 4.898 119.179C5.84867 117.354 7.06 115.783 8.532 114.464C10.0193 113.145 11.4453 112.486 12.81 112.486ZM23.4276 121.157C23.4276 120.636 23.3432 120.145 23.1746 119.685C23.0059 119.21 22.7606 118.865 22.4386 118.65C21.3806 118.941 20.4682 119.762 19.7016 121.111C18.9502 122.445 18.5746 123.702 18.5746 124.883C18.5746 126.064 18.8659 126.8 19.4486 127.091C20.5526 126.876 21.4879 126.125 22.2546 124.837C23.0366 123.534 23.4276 122.307 23.4276 121.157ZM17.3786 121.364C17.9152 120.168 18.6129 119.187 19.4716 118.42C20.3456 117.638 21.2349 117.247 22.1396 117.247C23.0596 117.247 23.8262 117.638 24.4396 118.42C25.0529 119.187 25.3596 120.13 25.3596 121.249C25.3596 122.353 25.0912 123.488 24.5546 124.653C24.0179 125.803 23.2742 126.761 22.3236 127.528C21.3882 128.279 20.3916 128.655 19.3336 128.655C18.5516 128.655 17.8999 128.295 17.3786 127.574C16.8572 126.853 16.5966 125.941 16.5966 124.837C16.5966 123.718 16.8572 122.56 17.3786 121.364ZM31.4344 112.739C31.4344 115.622 30.8364 119.363 29.6404 123.963C28.8738 127.091 28.3371 128.655 28.0304 128.655C27.8158 128.655 27.5628 128.486 27.2714 128.149C26.9954 127.812 26.8574 127.551 26.8574 127.367C26.8574 127.183 27.0798 126.232 27.5244 124.515C27.9691 122.798 28.4138 120.689 28.8584 118.19C29.3031 115.675 29.5254 113.414 29.5254 111.405C29.5254 111.19 29.5561 111.037 29.6174 110.945C29.6788 110.853 29.8091 110.807 30.0084 110.807C30.2078 110.807 30.4914 111.029 30.8594 111.474C31.2428 111.903 31.4344 112.325 31.4344 112.739ZM39.4871 121.157C39.4871 120.636 39.4028 120.145 39.2341 119.685C39.0655 119.21 38.8201 118.865 38.4981 118.65C37.4401 118.941 36.5278 119.762 35.7611 121.111C35.0098 122.445 34.6341 123.702 34.6341 124.883C34.6341 126.064 34.9255 126.8 35.5081 127.091C36.6121 126.876 37.5475 126.125 38.3141 124.837C39.0961 123.534 39.4871 122.307 39.4871 121.157ZM33.4381 121.364C33.9748 120.168 34.6725 119.187 35.5311 118.42C36.4051 117.638 37.2945 117.247 38.1991 117.247C39.1191 117.247 39.8858 117.638 40.4991 118.42C41.1125 119.187 41.4191 120.13 41.4191 121.249C41.4191 122.353 41.1508 123.488 40.6141 124.653C40.0775 125.803 39.3338 126.761 38.3831 127.528C37.4478 128.279 36.4511 128.655 35.3931 128.655C34.6111 128.655 33.9595 128.295 33.4381 127.574C32.9168 126.853 32.6561 125.941 32.6561 124.837C32.6561 123.718 32.9168 122.56 33.4381 121.364ZM44.343 120.053L44.274 118.328C44.274 117.607 44.4427 117.247 44.78 117.247C45.0713 117.247 45.3473 117.439 45.608 117.822C45.884 118.19 46.022 118.635 46.022 119.156C46.022 119.662 46.0067 120.045 45.976 120.306C47.31 118.282 48.575 117.27 49.771 117.27C50.5223 117.27 50.898 117.454 50.898 117.822C50.898 118.006 50.8137 118.175 50.645 118.328C50.4763 118.481 50.208 118.658 49.84 118.857C49.0273 119.21 48.3373 119.754 47.77 120.49C47.218 121.211 46.7657 122.031 46.413 122.951C46.0603 123.871 45.7767 124.645 45.562 125.274C45.3627 125.903 45.2093 126.393 45.102 126.746C44.9947 127.099 44.872 127.444 44.734 127.781C44.4887 128.394 44.205 128.701 43.883 128.701C43.6223 128.701 43.4077 128.555 43.239 128.264C43.0857 127.957 43.009 127.666 43.009 127.39C43.009 127.099 43.1393 126.531 43.4 125.688C44.0287 123.756 44.343 121.878 44.343 120.053ZM68.8017 117.247C69.047 117.247 69.3077 117.431 69.5837 117.799C69.875 118.152 70.0207 118.55 70.0207 118.995C70.0207 119.302 69.7064 120.344 69.0777 122.123C68.449 123.902 68.0197 125.113 67.7897 125.757C67.575 126.386 67.276 127.229 66.8927 128.287C66.5247 129.33 66.1644 130.349 65.8117 131.346C65.045 133.539 63.895 134.635 62.3617 134.635C61.4877 134.635 60.652 134.367 59.8547 133.83C59.0574 133.309 58.6587 132.764 58.6587 132.197C58.6587 131.982 58.7584 131.745 58.9577 131.484C59.1417 131.223 59.3027 131.093 59.4407 131.093C59.5787 131.093 59.801 131.262 60.1077 131.599C60.997 132.611 61.756 133.117 62.3847 133.117C62.86 133.117 63.2894 132.695 63.6727 131.852C64.056 131.024 64.4164 130.081 64.7537 129.023C65.1064 127.98 65.298 127.405 65.3287 127.298C65.3747 127.191 65.4207 127.053 65.4667 126.884C65.528 126.715 65.5817 126.562 65.6277 126.424C64.539 127.911 63.4657 128.655 62.4077 128.655C61.7637 128.655 61.1657 128.356 60.6137 127.758C60.077 127.16 59.8087 126.455 59.8087 125.642C59.8087 124.829 60.008 123.733 60.4067 122.353C60.8054 120.973 61.273 119.777 61.8097 118.765C62.3464 117.753 62.7834 117.247 63.1207 117.247C63.3967 117.247 63.6497 117.377 63.8797 117.638C64.125 117.883 64.2477 118.136 64.2477 118.397C64.2477 118.658 64.0484 119.202 63.6497 120.03C62.4077 122.575 61.7867 124.553 61.7867 125.964C61.7867 126.209 61.8634 126.416 62.0167 126.585C62.17 126.738 62.354 126.815 62.5687 126.815C63.1207 126.815 63.78 126.324 64.5467 125.343C65.3134 124.362 66.0187 123.196 66.6627 121.847C67.1994 120.712 67.759 119.263 68.3417 117.5C68.403 117.331 68.5564 117.247 68.8017 117.247ZM77.536 121.157C77.536 120.636 77.4516 120.145 77.283 119.685C77.1143 119.21 76.869 118.865 76.547 118.65C75.489 118.941 74.5766 119.762 73.81 121.111C73.0586 122.445 72.683 123.702 72.683 124.883C72.683 126.064 72.9743 126.8 73.557 127.091C74.661 126.876 75.5963 126.125 76.363 124.837C77.145 123.534 77.536 122.307 77.536 121.157ZM71.487 121.364C72.0236 120.168 72.7213 119.187 73.58 118.42C74.454 117.638 75.3433 117.247 76.248 117.247C77.168 117.247 77.9346 117.638 78.548 118.42C79.1613 119.187 79.468 120.13 79.468 121.249C79.468 122.353 79.1996 123.488 78.663 124.653C78.1263 125.803 77.3826 126.761 76.432 127.528C75.4966 128.279 74.5 128.655 73.442 128.655C72.66 128.655 72.0083 128.295 71.487 127.574C70.9656 126.853 70.705 125.941 70.705 124.837C70.705 123.718 70.9656 122.56 71.487 121.364ZM89.1538 117.891C89.2152 117.646 89.2765 117.477 89.3378 117.385C89.3992 117.293 89.5295 117.247 89.7288 117.247C89.9435 117.247 90.1965 117.446 90.4878 117.845C90.7945 118.244 90.9478 118.627 90.9478 118.995C90.9478 119.194 90.6105 120.375 89.9358 122.537C89.2612 124.699 88.7398 126.416 88.3718 127.689C88.1878 128.333 87.9272 128.655 87.5898 128.655C87.3905 128.655 87.2218 128.571 87.0838 128.402C86.9458 128.233 86.8768 127.927 86.8768 127.482C86.8768 127.037 87.0532 126.232 87.4058 125.067C86.7618 126.11 86.0642 126.968 85.3128 127.643C84.5615 128.318 83.8715 128.655 83.2428 128.655C82.6295 128.655 82.0468 128.364 81.4948 127.781C80.9428 127.198 80.6668 126.6 80.6668 125.987C80.6668 124.53 81.0885 122.713 81.9318 120.536C82.7905 118.343 83.5035 117.247 84.0708 117.247C84.3468 117.247 84.5845 117.377 84.7838 117.638C84.9985 117.883 85.1058 118.167 85.1058 118.489C85.1058 118.627 84.8988 119.125 84.4848 119.984C84.0708 120.827 83.6568 121.824 83.2428 122.974C82.8288 124.109 82.6218 125.105 82.6218 125.964C82.6218 126.209 82.6985 126.416 82.8518 126.585C83.0052 126.738 83.1892 126.815 83.4038 126.815C83.9865 126.815 84.6765 126.301 85.4738 125.274C86.2865 124.247 87.0225 123.051 87.6818 121.686C88.3412 120.321 88.8318 119.056 89.1538 117.891ZM93.4651 120.053L93.3961 118.328C93.3961 117.607 93.5647 117.247 93.9021 117.247C94.1934 117.247 94.4694 117.439 94.7301 117.822C95.0061 118.19 95.1441 118.635 95.1441 119.156C95.1441 119.662 95.1287 120.045 95.0981 120.306C96.4321 118.282 97.6971 117.27 98.8931 117.27C99.6444 117.27 100.02 117.454 100.02 117.822C100.02 118.006 99.9357 118.175 99.7671 118.328C99.5984 118.481 99.3301 118.658 98.9621 118.857C98.1494 119.21 97.4594 119.754 96.8921 120.49C96.3401 121.211 95.8877 122.031 95.5351 122.951C95.1824 123.871 94.8987 124.645 94.6841 125.274C94.4847 125.903 94.3314 126.393 94.2241 126.746C94.1167 127.099 93.9941 127.444 93.8561 127.781C93.6107 128.394 93.3271 128.701 93.0051 128.701C92.7444 128.701 92.5297 128.555 92.3611 128.264C92.2077 127.957 92.1311 127.666 92.1311 127.39C92.1311 127.099 92.2614 126.531 92.5221 125.688C93.1507 123.756 93.4651 121.878 93.4651 120.053ZM118.177 119.685L118.016 124.009C118.016 125.205 118.069 126.071 118.177 126.608C118.836 125.918 119.403 125.113 119.879 124.193C120.369 123.258 120.73 122.391 120.96 121.594C121.205 120.797 121.412 120.053 121.581 119.363C121.765 118.658 121.933 118.098 122.087 117.684C122.24 117.27 122.416 117.063 122.616 117.063C122.907 117.063 123.168 117.186 123.398 117.431C123.628 117.661 123.743 117.929 123.743 118.236C123.743 119.018 123.39 120.306 122.685 122.1C122.087 123.756 121.305 125.274 120.339 126.654C119.373 128.019 118.621 128.701 118.085 128.701C117.548 128.701 117.142 128.402 116.866 127.804C116.605 127.206 116.459 126.064 116.429 124.377C116.398 122.675 116.421 121.203 116.498 119.961C115.44 122.844 114.504 125.021 113.692 126.493C112.879 127.965 112.235 128.701 111.76 128.701C111.545 128.701 111.315 128.601 111.07 128.402C110.84 128.203 110.656 127.942 110.518 127.62C110.18 126.807 109.889 125.259 109.644 122.974C109.414 120.674 109.299 119.033 109.299 118.052C109.299 117.423 109.49 117.109 109.874 117.109C110.211 117.109 110.518 117.301 110.794 117.684C111.085 118.067 111.254 118.451 111.3 118.834C111.346 119.202 111.384 120.245 111.415 121.962C111.461 123.664 111.606 125.182 111.852 126.516C112.48 125.427 113.109 124.063 113.738 122.422C114.382 120.781 114.903 119.493 115.302 118.558C115.716 117.623 116.091 117.155 116.429 117.155C116.935 117.155 117.349 117.393 117.671 117.868C118.008 118.328 118.177 118.934 118.177 119.685ZM127.35 113.981C127.35 113.674 127.473 113.383 127.718 113.107C127.964 112.831 128.209 112.693 128.454 112.693C128.715 112.693 129.022 113.007 129.374 113.636C129.727 114.249 129.903 114.763 129.903 115.177C129.903 115.33 129.834 115.468 129.696 115.591C129.558 115.714 129.413 115.775 129.259 115.775C128.891 115.775 128.477 115.553 128.017 115.108C127.573 114.663 127.35 114.288 127.35 113.981ZM127.235 117.247C127.527 117.247 127.803 117.423 128.063 117.776C128.324 118.129 128.454 118.474 128.454 118.811C128.454 119.148 128.232 120.16 127.787 121.847C127.343 123.518 126.783 125.397 126.108 127.482C125.848 128.249 125.518 128.632 125.119 128.632C124.905 128.632 124.721 128.548 124.567 128.379C124.414 128.195 124.337 127.996 124.337 127.781C124.337 127.551 124.391 127.198 124.498 126.723C124.621 126.232 124.79 125.588 125.004 124.791C125.234 123.978 125.411 123.319 125.533 122.813C125.671 122.307 125.809 121.74 125.947 121.111C126.085 120.467 126.193 119.953 126.269 119.57C126.361 119.171 126.461 118.773 126.568 118.374C126.783 117.623 127.005 117.247 127.235 117.247ZM136.465 117.247C136.986 117.247 137.477 117.538 137.937 118.121C138.397 118.688 138.627 119.187 138.627 119.616C138.627 119.877 138.504 120.007 138.259 120.007C138.09 120.007 137.829 119.877 137.477 119.616C137.124 119.34 136.764 119.202 136.396 119.202C136.028 119.202 135.445 119.417 134.648 119.846C133.866 120.275 133.475 120.728 133.475 121.203C133.475 121.556 134.18 122.161 135.591 123.02C136.127 123.357 136.61 123.794 137.04 124.331C137.484 124.852 137.707 125.42 137.707 126.033C137.707 126.631 137.285 127.221 136.442 127.804C135.614 128.371 134.64 128.655 133.521 128.655C132.417 128.655 131.435 128.387 130.577 127.85C129.733 127.313 129.312 126.807 129.312 126.332C129.312 126.133 129.358 125.979 129.45 125.872C129.557 125.749 129.687 125.688 129.841 125.688C129.994 125.688 130.209 125.788 130.485 125.987C131.313 126.585 132.171 126.884 133.061 126.884C133.965 126.884 134.617 126.784 135.016 126.585C135.414 126.37 135.614 126.094 135.614 125.757C135.614 125.404 135.391 125.036 134.947 124.653C134.502 124.254 134.011 123.902 133.475 123.595C132.953 123.288 132.47 122.913 132.026 122.468C131.581 122.023 131.359 121.571 131.359 121.111C131.359 120.298 131.995 119.455 133.268 118.581C134.556 117.692 135.621 117.247 136.465 117.247ZM142.394 111.704C142.394 111.106 142.578 110.807 142.946 110.807C143.237 110.807 143.544 111.037 143.866 111.497C144.203 111.957 144.372 112.402 144.372 112.831C144.372 113.828 144.119 115.53 143.613 117.937C143.122 120.329 142.478 122.721 141.681 125.113C143.214 122.338 144.494 120.337 145.522 119.11C146.564 117.868 147.454 117.247 148.19 117.247C148.588 117.247 149.048 117.592 149.57 118.282C150.106 118.972 150.375 119.662 150.375 120.352C150.375 121.042 150.183 122.077 149.8 123.457C148.849 126.922 147.952 128.655 147.109 128.655C146.771 128.655 146.603 128.425 146.603 127.965C146.603 127.505 146.787 126.731 147.155 125.642C147.967 123.265 148.374 121.663 148.374 120.835C148.374 120.559 148.305 120.329 148.167 120.145C148.029 119.961 147.86 119.869 147.661 119.869C147.461 119.869 147.216 119.976 146.925 120.191C146.633 120.406 146.281 120.781 145.867 121.318C145.345 122.008 144.801 122.782 144.234 123.641C143.682 124.5 143.344 125.021 143.222 125.205C143.114 125.374 142.915 125.688 142.624 126.148C142.348 126.608 142.141 126.953 142.003 127.183C141.865 127.398 141.696 127.635 141.497 127.896C141.144 128.402 140.876 128.655 140.692 128.655C140.508 128.655 140.262 128.486 139.956 128.149C139.649 127.796 139.496 127.505 139.496 127.275C139.496 127.03 139.58 126.577 139.749 125.918C140.515 122.974 140.998 120.958 141.198 119.869C141.995 115.882 142.394 113.161 142.394 111.704ZM161.188 121.065C161.188 121.878 160.743 122.545 159.854 123.066C158.98 123.572 157.983 123.825 156.864 123.825C155.76 123.825 154.756 123.702 153.851 123.457C153.636 124.132 153.529 124.737 153.529 125.274C153.529 125.795 153.69 126.202 154.012 126.493C154.349 126.784 154.894 126.93 155.645 126.93C156.412 126.93 157.194 126.8 157.991 126.539C158.804 126.263 159.248 126.125 159.325 126.125C159.724 126.125 159.923 126.278 159.923 126.585C159.923 126.999 159.455 127.451 158.52 127.942C157.585 128.417 156.672 128.655 155.783 128.655C154.587 128.655 153.613 128.302 152.862 127.597C152.111 126.876 151.735 125.972 151.735 124.883C151.735 123.794 152.026 122.66 152.609 121.479C153.192 120.283 153.943 119.279 154.863 118.466C155.783 117.653 156.695 117.247 157.6 117.247C158.505 117.247 159.325 117.676 160.061 118.535C160.812 119.394 161.188 120.237 161.188 121.065ZM157.715 119.064C157.148 119.064 156.557 119.363 155.944 119.961C155.331 120.544 154.809 121.272 154.38 122.146C154.993 122.284 155.691 122.353 156.473 122.353C157.255 122.353 157.937 122.23 158.52 121.985C159.103 121.724 159.394 121.387 159.394 120.973C159.394 120.559 159.202 120.137 158.819 119.708C158.451 119.279 158.083 119.064 157.715 119.064ZM168.943 117.247C169.465 117.247 169.955 117.538 170.415 118.121C170.875 118.688 171.105 119.187 171.105 119.616C171.105 119.877 170.983 120.007 170.737 120.007C170.569 120.007 170.308 119.877 169.955 119.616C169.603 119.34 169.242 119.202 168.874 119.202C168.506 119.202 167.924 119.417 167.126 119.846C166.344 120.275 165.953 120.728 165.953 121.203C165.953 121.556 166.659 122.161 168.069 123.02C168.606 123.357 169.089 123.794 169.518 124.331C169.963 124.852 170.185 125.42 170.185 126.033C170.185 126.631 169.764 127.221 168.92 127.804C168.092 128.371 167.119 128.655 165.999 128.655C164.895 128.655 163.914 128.387 163.055 127.85C162.212 127.313 161.79 126.807 161.79 126.332C161.79 126.133 161.836 125.979 161.928 125.872C162.036 125.749 162.166 125.688 162.319 125.688C162.473 125.688 162.687 125.788 162.963 125.987C163.791 126.585 164.65 126.884 165.539 126.884C166.444 126.884 167.096 126.784 167.494 126.585C167.893 126.37 168.092 126.094 168.092 125.757C168.092 125.404 167.87 125.036 167.425 124.653C166.981 124.254 166.49 123.902 165.953 123.595C165.432 123.288 164.949 122.913 164.504 122.468C164.06 122.023 163.837 121.571 163.837 121.111C163.837 120.298 164.474 119.455 165.746 118.581C167.034 117.692 168.1 117.247 168.943 117.247Z" fill="#6B7280"/>
</svg>
